<?xml version="1.0" encoding="utf-8"?>
<!-- Generator: Adobe Illustrator 16.0.0, SVG Export Plug-In . SVG Version: 6.00 Build 0)  -->
<!DOCTYPE svg PUBLIC "-//W3C//DTD SVG 1.1//EN" "http://www.w3.org/Graphics/SVG/1.1/DTD/svg11.dtd">
<svg version="1.1" id="Layer_1" xmlns="http://www.w3.org/2000/svg" xmlns:xlink="http://www.w3.org/1999/xlink" x="0px" y="0px"
	 width="24px" height="24px" viewBox="0 0 24 24" enable-background="new 0 0 24 24" xml:space="preserve">
<g>
	<defs>
		<rect id="SVGID_1_" x="-2892.169" y="-46.5" width="1920" height="1080"/>
	</defs>
	<clipPath id="SVGID_2_">
		<use xlink:href="#SVGID_1_"  overflow="visible"/>
	</clipPath>
	<g clip-path="url(#SVGID_2_)">
		<defs>
			<rect id="SVGID_3_" x="-2892.169" y="-46.5" width="1920" height="1080"/>
		</defs>
		<clipPath id="SVGID_4_">
			<use xlink:href="#SVGID_3_"  overflow="visible"/>
		</clipPath>
		<g clip-path="url(#SVGID_4_)">
			<defs>
				<rect id="SVGID_5_" x="-2892.169" y="-146.5" width="1920" height="1280"/>
			</defs>
			<clipPath id="SVGID_6_">
				<use xlink:href="#SVGID_5_"  overflow="visible"/>
			</clipPath>
			<g clip-path="url(#SVGID_6_)">
				
					<image overflow="visible" width="5472" height="3648" xlink:href="993D1E55.jpg"  transform="matrix(0.3509 0 0 0.3509 -2892.1689 -146.5)">
				</image>
			</g>
		</g>
	</g>
	<g clip-path="url(#SVGID_2_)">
		<defs>
			<rect id="SVGID_7_" x="-2892.169" y="-46.5" width="1920" height="1080"/>
		</defs>
		<clipPath id="SVGID_8_">
			<use xlink:href="#SVGID_7_"  overflow="visible"/>
		</clipPath>
		<path clip-path="url(#SVGID_8_)" fill="#3b6945" d="M-2224,94c0,13.807-11.193,25-25,25c-13.807,0-25-11.193-25-25
			s11.193-25,25-25C-2235.193,69-2224,80.193-2224,94"/>
		<path clip-path="url(#SVGID_8_)" fill="#FFFF00" d="M-2245.58,105.217v0.876c0,0.698-0.513,1.278-1.18,1.377l-0.215,0.796
			c-0.118,0.432-0.507,0.735-0.957,0.735h-2.142c-0.451,0-0.84-0.303-0.957-0.735l-0.21-0.796c-0.673-0.105-1.185-0.679-1.185-1.383
			v-0.877c0-0.469,0.376-0.845,0.846-0.845h5.154C-2245.957,104.371-2245.58,104.748-2245.58,105.217 M-2241.612,93.401
			c0,1.994-0.79,3.802-2.073,5.129c-0.975,1.012-1.605,2.303-1.815,3.679c-0.093,0.593-0.605,1.031-1.21,1.031h-4.587
			c-0.598,0-1.117-0.432-1.203-1.025c-0.217-1.376-0.852-2.685-1.827-3.691c-1.26-1.309-2.044-3.087-2.062-5.043
			c-0.043-4.111,3.229-7.438,7.339-7.469C-2244.945,85.981-2241.612,89.303-2241.612,93.401 M-2248.167,88.926
			c0-0.456-0.37-0.833-0.833-0.833c-2.939,0-5.333,2.389-5.333,5.333c0,0.457,0.37,0.834,0.833,0.834
			c0.457,0,0.833-0.37,0.833-0.834c0-2.024,1.648-3.666,3.667-3.666C-2248.537,89.76-2248.167,89.39-2248.167,88.926 M-2249,83.586
			c0.457,0,0.833-0.37,0.833-0.834v-2.919c0-0.457-0.37-0.833-0.833-0.833c-0.463,0-0.833,0.37-0.833,0.833v2.919
			C-2249.833,83.217-2249.457,83.586-2249,83.586 M-2258.809,93.396c0-0.457-0.37-0.833-0.833-0.833h-2.92
			c-0.457,0-0.833,0.37-0.833,0.833c0,0.457,0.37,0.833,0.833,0.833h2.92C-2259.179,94.229-2258.809,93.857-2258.809,93.396
			 M-2235.438,92.563h-2.919c-0.457,0-0.834,0.37-0.834,0.833c0,0.457,0.371,0.833,0.834,0.833h2.919
			c0.457,0,0.834-0.371,0.834-0.833C-2234.604,92.938-2234.975,92.563-2235.438,92.563 M-2257.111,100.333l-2.068,2.068
			c-0.328,0.327-0.328,0.851,0,1.179c0.16,0.16,0.376,0.24,0.586,0.24s0.426-0.08,0.586-0.24l2.069-2.068
			c0.326-0.327,0.326-0.852,0-1.179C-2256.26,100.005-2256.79,100.005-2257.111,100.333 M-2241.476,86.704
			c0.211,0,0.426-0.08,0.587-0.241l2.068-2.067c0.327-0.328,0.327-0.853,0-1.179c-0.328-0.328-0.852-0.328-1.179,0l-2.068,2.068
			c-0.327,0.327-0.327,0.851,0,1.178C-2241.902,86.624-2241.692,86.704-2241.476,86.704 M-2257.111,86.458
			c0.16,0.16,0.376,0.24,0.586,0.24c0.21,0,0.426-0.08,0.587-0.24c0.326-0.328,0.326-0.853,0-1.18l-2.069-2.068
			c-0.326-0.327-0.851-0.327-1.178,0c-0.328,0.328-0.328,0.853,0,1.179L-2257.111,86.458z M-2240.889,100.333
			c-0.327-0.328-0.852-0.328-1.179,0c-0.327,0.327-0.327,0.852,0,1.179l2.068,2.068c0.16,0.16,0.376,0.24,0.586,0.24
			s0.426-0.08,0.587-0.24c0.327-0.328,0.327-0.852,0-1.179L-2240.889,100.333z"/>
	</g>
	<g clip-path="url(#SVGID_2_)">
		<defs>
			<rect id="SVGID_9_" x="-2892.169" y="-46.5" width="1920" height="1080"/>
		</defs>
		<clipPath id="SVGID_10_">
			<use xlink:href="#SVGID_9_"  overflow="visible"/>
		</clipPath>
		<g opacity="0.4" clip-path="url(#SVGID_10_)">
			<g>
				<defs>
					<rect id="SVGID_11_" x="-2817.169" y="-46.5" width="837" height="100"/>
				</defs>
				<clipPath id="SVGID_12_">
					<use xlink:href="#SVGID_11_"  overflow="visible"/>
				</clipPath>
				<g clip-path="url(#SVGID_12_)">
					<defs>
						<rect id="SVGID_13_" x="-2817.169" y="-46.5" width="837" height="100"/>
					</defs>
					<clipPath id="SVGID_14_">
						<use xlink:href="#SVGID_13_"  overflow="visible"/>
					</clipPath>
					<g clip-path="url(#SVGID_14_)">
						
							<image overflow="visible" width="837" height="100" xlink:href="993D1E57.png"  transform="matrix(1 0 0 1 -2817.1689 -46.5)">
						</image>
					</g>
				</g>
			</g>
		</g>
		<path clip-path="url(#SVGID_10_)" fill="#FFFFFF" d="M-2035.199,33.5h-736.97c-19.33,0-35-15.67-35-35s15.67-35,35-35h736.97
			c19.33,0,35,15.67,35,35S-2015.869,33.5-2035.199,33.5"/>
	</g>
	<g clip-path="url(#SVGID_2_)">
		<text transform="matrix(1 0 0 1 -2731.8594 6.3784)"><tspan x="0" y="0" fill="#274480" font-family="'SohoGothicPro-Bold'" font-size="27.0968">R</tspan><tspan x="19.076" y="0" fill="#274480" font-family="'SohoGothicPro-Bold'" font-size="27.0968">e</tspan><tspan x="36.336" y="0" fill="#274480" font-family="'SohoGothicPro-Bold'" font-size="27.0968">c</tspan><tspan x="50.399" y="0" fill="#274480" font-family="'SohoGothicPro-Bold'" font-size="27.0968">orrido virtual C</tspan><tspan x="255.52" y="0" fill="#274480" font-family="'SohoGothicPro-Bold'" font-size="27.0968">E</tspan><tspan x="272.292" y="0" fill="#274480" font-family="'SohoGothicPro-Bold'" font-size="27.0968">O </tspan></text>
	</g>
	<g clip-path="url(#SVGID_2_)">
		<text transform="matrix(1 0 0 1 -2433.9878 6.3784)" fill="#274480" font-family="'SohoGothicPro-Light'" font-size="22.5806">- Visita de campo: </text>
	</g>
	<g clip-path="url(#SVGID_2_)">
		<text transform="matrix(1 0 0 1 -2253.0713 6.3784)"><tspan x="0" y="0" fill="#5382BA" font-family="'SohoGothicPro-Medium'" font-size="22.5806">Subestación </tspan><tspan x="140.449" y="0" fill="#5382BA" font-family="'SohoGothicPro-Medium'" font-size="22.5806">P</tspan><tspan x="154.63" y="0" fill="#5382BA" font-family="'SohoGothicPro-Medium'" font-size="22.5806">op</tspan><tspan x="182.291" y="0" fill="#5382BA" font-family="'SohoGothicPro-Medium'" font-size="22.5806">a</tspan><tspan x="194.777" y="0" fill="#5382BA" font-family="'SohoGothicPro-Medium'" font-size="22.5806">y</tspan><tspan x="207.558" y="0" fill="#5382BA" font-family="'SohoGothicPro-Medium'" font-size="22.5806">án</tspan></text>
	</g>
	<g clip-path="url(#SVGID_2_)">
		<defs>
			<rect id="SVGID_15_" x="-2892.169" y="-46.5" width="1920" height="1080"/>
		</defs>
		<clipPath id="SVGID_16_">
			<use xlink:href="#SVGID_15_"  overflow="visible"/>
		</clipPath>
		<g opacity="0.4" clip-path="url(#SVGID_16_)">
			<g>
				<defs>
					<rect id="SVGID_17_" x="-2868.169" y="-37.5" width="141" height="80"/>
				</defs>
				<clipPath id="SVGID_18_">
					<use xlink:href="#SVGID_17_"  overflow="visible"/>
				</clipPath>
				<g clip-path="url(#SVGID_18_)">
					<defs>
						<rect id="SVGID_19_" x="-2868.169" y="-37.5" width="141" height="80"/>
					</defs>
					<clipPath id="SVGID_20_">
						<use xlink:href="#SVGID_19_"  overflow="visible"/>
					</clipPath>
					<g clip-path="url(#SVGID_20_)">
						<image overflow="visible" width="141" height="80" xlink:href="993D1E55.png"  transform="matrix(1 0 0 1 -2868.1689 -37.5)">
						</image>
					</g>
				</g>
			</g>
		</g>
		<path clip-path="url(#SVGID_16_)" fill="#508080" d="M-2833.169,22.5c-13.807,0-25-11.193-25-25c0-13.807,11.193-25,25-25h61
			c13.807,0,25,11.193,25,25c0,13.807-11.193,25-25,25H-2833.169z"/>
		<path clip-path="url(#SVGID_16_)" fill="#BFD100" d="M-2758.239-2.5c0,10.494-8.507,19-19,19c-10.494,0-19-8.506-19-19
			s8.506-19,19-19C-2766.746-21.5-2758.239-12.994-2758.239-2.5"/>
		
			<line clip-path="url(#SVGID_16_)" fill="none" stroke="#FFFFFF" stroke-width="2.5" stroke-miterlimit="10" x1="-2839.669" y1="-10.5" x2="-2812.669" y2="-10.5"/>
		
			<line clip-path="url(#SVGID_16_)" fill="none" stroke="#FFFFFF" stroke-width="2.5" stroke-miterlimit="10" x1="-2812.669" y1="-2.5" x2="-2839.669" y2="-2.5"/>
		
			<line clip-path="url(#SVGID_16_)" fill="none" stroke="#FFFFFF" stroke-width="2.5" stroke-miterlimit="10" x1="-2839.669" y1="5.5" x2="-2812.669" y2="5.5"/>
		<path clip-path="url(#SVGID_16_)" fill="#FFFFFF" d="M-2777.239-15c1.879,0,3.409,1.529,3.409,3.409s-1.53,3.409-3.409,3.409
			c-1.88,0-3.409-1.529-3.409-3.409S-2779.119-15-2777.239-15"/>
		<polygon clip-path="url(#SVGID_16_)" fill="#FFFFFF" points="-2771.936,10 -2782.542,10 -2782.542,7.727 -2780.269,7.727 
			-2780.269,-3.636 -2782.542,-3.636 -2782.542,-5.909 -2774.208,-5.909 -2774.208,7.727 -2771.936,7.727 		"/>
		<g opacity="0.5" clip-path="url(#SVGID_16_)">
			<g>
				<defs>
					<rect id="SVGID_21_" x="-2608.169" y="851.5" width="1352" height="190"/>
				</defs>
				<clipPath id="SVGID_22_">
					<use xlink:href="#SVGID_21_"  overflow="visible"/>
				</clipPath>
				<g clip-path="url(#SVGID_22_)">
					<defs>
						<rect id="SVGID_23_" x="-2608.169" y="851.5" width="1352" height="190"/>
					</defs>
					<clipPath id="SVGID_24_">
						<use xlink:href="#SVGID_23_"  overflow="visible"/>
					</clipPath>
					<g clip-path="url(#SVGID_24_)">
						
							<image overflow="visible" width="1352" height="190" xlink:href="993D1E53.png"  transform="matrix(1 0 0 1 -2608.1689 851.5)">
						</image>
					</g>
				</g>
			</g>
		</g>
		<rect x="-2592.669" y="873.5" clip-path="url(#SVGID_16_)" fill="#FFFFFF" width="1321" height="160"/>
	</g>
	<g clip-path="url(#SVGID_2_)">
		<defs>
			<rect id="SVGID_25_" x="-2568.669" y="893.5" width="150" height="100"/>
		</defs>
		<clipPath id="SVGID_26_">
			<use xlink:href="#SVGID_25_"  overflow="visible"/>
		</clipPath>
		<g transform="matrix(1 0 0 1 -2.441406e-004 6.103516e-005)" clip-path="url(#SVGID_26_)">
			
				<image overflow="visible" width="5472" height="3648" xlink:href="993D1E5D.jpg"  transform="matrix(0.0274 0 0 0.0274 -2568.6689 893.5)">
			</image>
		</g>
	</g>
	<g clip-path="url(#SVGID_2_)">
		<defs>
			<rect id="SVGID_27_" x="-2408.669" y="893.5" width="150" height="100"/>
		</defs>
		<clipPath id="SVGID_28_">
			<use xlink:href="#SVGID_27_"  overflow="visible"/>
		</clipPath>
		<g transform="matrix(1 0 0 1 0 6.103516e-005)" clip-path="url(#SVGID_28_)">
			
				<image overflow="visible" width="5472" height="3648" xlink:href="993D1E5F.jpg"  transform="matrix(0.0274 0 0 0.0274 -2408.6689 893.5)">
			</image>
		</g>
	</g>
	<g clip-path="url(#SVGID_2_)">
		<defs>
			<rect id="SVGID_29_" x="-2248.669" y="893.5" width="150" height="100"/>
		</defs>
		<clipPath id="SVGID_30_">
			<use xlink:href="#SVGID_29_"  overflow="visible"/>
		</clipPath>
		<g transform="matrix(1 0 0 1 0 6.103516e-005)" clip-path="url(#SVGID_30_)">
			
				<image overflow="visible" width="5472" height="3648" xlink:href="993D1E52.jpg"  transform="matrix(0.0274 0 0 0.0274 -2248.6689 893.5)">
			</image>
		</g>
	</g>
	<g clip-path="url(#SVGID_2_)">
		<defs>
			<rect id="SVGID_31_" x="-2088.669" y="893.499" width="149.999" height="100.001"/>
		</defs>
		<clipPath id="SVGID_32_">
			<use xlink:href="#SVGID_31_"  overflow="visible"/>
		</clipPath>
		<g clip-path="url(#SVGID_32_)">
			<defs>
				<rect id="SVGID_33_" x="-2088.669" y="887.25" width="150" height="112.5"/>
			</defs>
			<clipPath id="SVGID_34_">
				<use xlink:href="#SVGID_33_"  overflow="visible"/>
			</clipPath>
			<g clip-path="url(#SVGID_34_)">
				
					<image overflow="visible" width="1024" height="768" xlink:href="993D1E53.jpg"  transform="matrix(0.1465 0 0 0.1465 -2088.6689 887.25)">
				</image>
			</g>
		</g>
	</g>
	<g clip-path="url(#SVGID_2_)">
		<defs>
			<rect id="SVGID_35_" x="-2892.169" y="-46.5" width="1920" height="1080"/>
		</defs>
		<clipPath id="SVGID_36_">
			<use xlink:href="#SVGID_35_"  overflow="visible"/>
		</clipPath>
		<rect x="-1928.669" y="893.5" clip-path="url(#SVGID_36_)" fill="#FFFFFF" width="150" height="100"/>
	</g>
	<g clip-path="url(#SVGID_2_)">
		<defs>
			<rect id="SVGID_37_" x="-1896.236" y="893.499" width="85.136" height="100.001"/>
		</defs>
		<clipPath id="SVGID_38_">
			<use xlink:href="#SVGID_37_"  overflow="visible"/>
		</clipPath>
		<g clip-path="url(#SVGID_38_)">
			<defs>
				<rect id="SVGID_39_" x="-1910.606" y="884.778" width="118.93" height="118.93"/>
			</defs>
			<clipPath id="SVGID_40_">
				<use xlink:href="#SVGID_39_"  overflow="visible"/>
			</clipPath>
			<g transform="matrix(1 0 0 1 -1.220703e-004 0)" clip-path="url(#SVGID_40_)">
				
					<image overflow="visible" width="1200" height="1200" xlink:href="993D1E56.jpg"  transform="matrix(0.0991 0 0 0.0991 -1910.6064 884.7783)">
				</image>
			</g>
		</g>
	</g>
	<g clip-path="url(#SVGID_2_)">
		<defs>
			<rect id="SVGID_41_" x="-1768.669" y="893.5" width="150" height="100"/>
		</defs>
		<clipPath id="SVGID_42_">
			<use xlink:href="#SVGID_41_"  overflow="visible"/>
		</clipPath>
		<g transform="matrix(1 0 0 1 0 6.103516e-005)" clip-path="url(#SVGID_42_)">
			
				<image overflow="visible" width="5472" height="3648" xlink:href="25D5625E.jpg"  transform="matrix(0.0274 0 0 0.0274 -1768.6689 893.5)">
			</image>
		</g>
	</g>
	<g clip-path="url(#SVGID_2_)">
		<defs>
			<rect id="SVGID_43_" x="-2892.169" y="-46.5" width="1920" height="1080"/>
		</defs>
		<clipPath id="SVGID_44_">
			<use xlink:href="#SVGID_43_"  overflow="visible"/>
		</clipPath>
		<path clip-path="url(#SVGID_44_)" fill="#E6E6E6" d="M-1300.669,1013.5h-1263c-2.761,0-5-2.238-5-5s2.239-5,5-5h1263
			c2.762,0,5,2.238,5,5S-1297.907,1013.5-1300.669,1013.5"/>
		<path clip-path="url(#SVGID_44_)" fill="#AFB0B5" d="M-2473.669,1013.5h-90c-2.761,0-5-2.238-5-5s2.239-5,5-5h90
			c2.761,0,5,2.238,5,5S-2470.908,1013.5-2473.669,1013.5"/>
		<g opacity="0.5" clip-path="url(#SVGID_44_)">
			<g>
				<defs>
					<rect id="SVGID_45_" x="-1768.669" y="893.5" width="150" height="100"/>
				</defs>
				<clipPath id="SVGID_46_">
					<use xlink:href="#SVGID_45_"  overflow="visible"/>
				</clipPath>
				<rect x="-1768.669" y="893.5" clip-path="url(#SVGID_46_)" fill="#00A397" width="150" height="100"/>
			</g>
		</g>
		<path clip-path="url(#SVGID_44_)" fill="#FFFFFF" d="M-1666.091,915.923c-7.057-7.059-16.807-11.423-27.578-11.423
			s-20.521,4.364-27.578,11.423c-7.058,7.056-11.422,16.806-11.422,27.577s4.364,20.521,11.422,27.578
			c7.057,7.058,16.807,11.422,27.578,11.422s20.521-4.364,27.578-11.422c7.057-7.057,11.422-16.807,11.422-27.578
			S-1659.034,922.979-1666.091,915.923 M-1669.434,967.735c-6.221,6.222-14.764,10.029-24.235,10.029s-18.015-3.808-24.235-10.029
			c-6.13-6.221-10.029-14.764-10.029-24.235s3.808-18.015,10.029-24.235c6.221-6.222,14.764-10.029,24.235-10.029
			s18.015,3.808,24.235,10.029c6.222,6.221,10.029,14.764,10.029,24.235S-1663.305,961.515-1669.434,967.735"/>
		<path clip-path="url(#SVGID_44_)" fill="#FFFFFF" d="M-1676.026,943.593c0,0.093-0.093,0.186-0.186,0.186h-0.093l-13.65,7.986
			l-0.093,0.093l-13.649,7.893c-0.093,0-0.093,0.093-0.186,0.093c0,0-0.093,0-0.093,0.093h-0.094c-0.093,0-0.186-0.093-0.278-0.093
			c-0.093-0.093-0.093-0.186-0.093-0.278V943.5v-15.972v-0.093v-0.093c0.093-0.093,0.186-0.186,0.278-0.186h0.279l13.742,7.893
			l0.093,0.093l13.836,7.986l0.093,0.093l0.093,0.093V943.593z"/>
	</g>
	<g clip-path="url(#SVGID_2_)">
		<defs>
			<rect id="SVGID_47_" x="-1608.669" y="893.499" width="150" height="100.001"/>
		</defs>
		<clipPath id="SVGID_48_">
			<use xlink:href="#SVGID_47_"  overflow="visible"/>
		</clipPath>
		<g clip-path="url(#SVGID_48_)">
			<defs>
				<rect id="SVGID_49_" x="-1608.669" y="783.5" width="150" height="225"/>
			</defs>
			<clipPath id="SVGID_50_">
				<use xlink:href="#SVGID_49_"  overflow="visible"/>
			</clipPath>
			<g clip-path="url(#SVGID_50_)">
				
					<image overflow="visible" width="3648" height="5472" xlink:href="25D56259.jpg"  transform="matrix(0.0411 0 0 0.0411 -1608.6689 783.5)">
				</image>
			</g>
		</g>
	</g>
	<g clip-path="url(#SVGID_2_)">
		<defs>
			<rect id="SVGID_51_" x="-1448.669" y="893.5" width="150" height="100"/>
		</defs>
		<clipPath id="SVGID_52_">
			<use xlink:href="#SVGID_51_"  overflow="visible"/>
		</clipPath>
		<g transform="matrix(1 0 0 1 0 6.103516e-005)" clip-path="url(#SVGID_52_)">
			
				<image overflow="visible" width="5472" height="3648" xlink:href="25D5625A.jpg"  transform="matrix(0.0274 0 0 0.0274 -1448.6689 893.5)">
			</image>
		</g>
	</g>
	<g clip-path="url(#SVGID_2_)">
		<defs>
			<rect id="SVGID_53_" x="-2892.169" y="-46.5" width="1920" height="1080"/>
		</defs>
		<clipPath id="SVGID_54_">
			<use xlink:href="#SVGID_53_"  overflow="visible"/>
		</clipPath>
		<g opacity="0.5" clip-path="url(#SVGID_54_)">
			<g>
				<defs>
					<rect id="SVGID_55_" x="-1608.669" y="893.5" width="150" height="100"/>
				</defs>
				<clipPath id="SVGID_56_">
					<use xlink:href="#SVGID_55_"  overflow="visible"/>
				</clipPath>
				<rect x="-1608.669" y="893.5" clip-path="url(#SVGID_56_)" fill="#FFFFFF" width="150" height="100"/>
			</g>
		</g>
		<g opacity="0.5" clip-path="url(#SVGID_54_)">
			<g>
				<defs>
					<rect id="SVGID_57_" x="-1448.669" y="893.5" width="150" height="100"/>
				</defs>
				<clipPath id="SVGID_58_">
					<use xlink:href="#SVGID_57_"  overflow="visible"/>
				</clipPath>
				<rect x="-1448.669" y="893.5" clip-path="url(#SVGID_58_)" fill="#FFFFFF" width="150" height="100"/>
			</g>
		</g>
	</g>
</g>
<g>
	<path fill="#3b6945" d="M23.5,12c0,6.351-5.149,11.5-11.5,11.5C5.648,23.5,0.5,18.351,0.5,12S5.648,0.5,12,0.5
		C18.351,0.5,23.5,5.649,23.5,12"/>
	<path fill="#FFFF00" d="M13.573,17.16v0.403c0,0.321-0.236,0.588-0.543,0.634l-0.099,0.366c-0.055,0.199-0.233,0.338-0.44,0.338
		h-0.985c-0.207,0-0.386-0.14-0.439-0.338l-0.098-0.366c-0.309-0.049-0.545-0.313-0.545-0.637v-0.403
		c0-0.215,0.173-0.389,0.39-0.389h2.371C13.4,16.771,13.573,16.944,13.573,17.16 M15.398,11.725c0,0.917-0.363,1.749-0.953,2.359
		c-0.448,0.465-0.738,1.06-0.835,1.692c-0.043,0.273-0.278,0.475-0.557,0.475h-2.11c-0.274,0-0.514-0.199-0.553-0.472
		c-0.101-0.633-0.393-1.235-0.841-1.698c-0.58-0.602-0.94-1.42-0.948-2.32c-0.021-1.891,1.485-3.421,3.376-3.436
		C13.865,8.312,15.398,9.839,15.398,11.725 M12.383,9.666c0-0.21-0.169-0.383-0.383-0.383c-1.352,0-2.453,1.099-2.453,2.453
		c0,0.21,0.17,0.384,0.384,0.384c0.21,0,0.383-0.17,0.383-0.384c0-0.931,0.758-1.687,1.687-1.687
		C12.214,10.049,12.383,9.879,12.383,9.666 M12,7.21c0.21,0,0.383-0.17,0.383-0.384V5.483c0-0.21-0.169-0.383-0.383-0.383
		c-0.213,0-0.383,0.17-0.383,0.383v1.343C11.617,7.04,11.79,7.21,12,7.21 M7.488,11.722c0-0.21-0.171-0.383-0.384-0.383H5.762
		c-0.21,0-0.383,0.17-0.383,0.383c0,0.21,0.17,0.383,0.383,0.383h1.343C7.317,12.105,7.488,11.935,7.488,11.722 M18.238,11.339
		h-1.343c-0.21,0-0.384,0.17-0.384,0.383c0,0.21,0.171,0.383,0.384,0.383h1.343c0.21,0,0.384-0.17,0.384-0.383
		C18.622,11.512,18.452,11.339,18.238,11.339 M8.27,14.914l-0.952,0.951c-0.15,0.15-0.15,0.392,0,0.542
		c0.074,0.074,0.174,0.11,0.27,0.11c0.097,0,0.196-0.037,0.27-0.11l0.952-0.951c0.149-0.151,0.149-0.392,0-0.542
		C8.66,14.763,8.417,14.763,8.27,14.914 M15.461,8.644c0.098,0,0.196-0.037,0.271-0.111l0.951-0.951c0.15-0.151,0.15-0.393,0-0.542
		c-0.151-0.151-0.393-0.151-0.542,0l-0.951,0.951c-0.151,0.15-0.151,0.392,0,0.542C15.266,8.607,15.361,8.644,15.461,8.644
		 M8.27,8.53c0.073,0.074,0.172,0.11,0.27,0.11c0.097,0,0.195-0.037,0.27-0.11c0.149-0.151,0.149-0.392,0-0.542L7.856,7.036
		c-0.149-0.15-0.392-0.15-0.541,0c-0.151,0.151-0.151,0.393,0,0.542L8.27,8.53z M15.731,14.914c-0.15-0.151-0.393-0.151-0.542,0
		c-0.151,0.15-0.151,0.392,0,0.542l0.951,0.951c0.073,0.074,0.172,0.11,0.27,0.11c0.096,0,0.195-0.037,0.27-0.11
		c0.15-0.151,0.15-0.392,0-0.542L15.731,14.914z"/>
</g>
</svg>
